# xmcd
#
# Track frame offsets:
# 150
# 13370
# 24622
# 38550
# 52027
# 67707
# 75520
# 87517
# 100490
# 112617
# 124707
# 138150
# 156892
# 169195
# 182340
#
# Disc length: 2595 seconds
#
#
# Revision: 0
# Processed by: cddbd v1.5.2PL0 Copyright (c) Steve Scherf et al.
# Submitted via: FreeRIP 2.95 
#
DISCID=b40a210f
DTITLE=Living The Blues Classics 1953-1954 CD1
DYEAR=1900
DGENRE=Blues
TTITLE0=Chuck Willis  I Feel So bad
TTITLE1=Guitar Slim  Well I Done Got Over
TTITLE2=Little Walter  Blues With A Feeling
TTITLE3=Little Junior's Blue Flame  Feelin' Good
TTITLE4=Eddie Boyd  24  Hours
TTITLE5=Willie Mae "Big Mama"  Thornton  I Smell A Ratt
TTITLE6=Professor Longhair  Tipitina
TTITLE7=Jimmy Witherspoon  When The Ligts Go Out
TTITLE8=Big Maybelle  Gabbin' Blues
TTITLE9=Roy Milton  Early In The Morning
TTITLE10=Jonny Ace With The Beale Streeters  The Clock
TTITLE11=Muddy Waters  I'm Ready
TTITLE12=Big Joe Turner  Honey Hush
TTITLE13=Ruth Brown  (Mama) He Treats Your Daughter
TTITLE14=Ray Charlea  It Should've Been Me
EXTD=
EXTT0=
EXTT1=
EXTT2=
EXTT3=
EXTT4=
EXTT5=
EXTT6=
EXTT7=
EXTT8=
EXTT9=
EXTT10=
EXTT11=
EXTT12=
EXTT13=
EXTT14=
PLAYORDER=
